HIERARCHY
ROOT Hips
{
 OFFSET 0.000000 0.000000 0.000000
 CHANNELS 6 Xposition Yposition Zposition Yrotation Xrotation Zrotation
 JOINT Chest
 {
  OFFSET 0.000000 9.585900 0.002600
  CHANNELS 3 Yrotation Xrotation Zrotation
  JOINT Chest2
  {
   OFFSET 0.000000 9.601200 -0.005300
   CHANNELS 3 Yrotation Xrotation Zrotation
   JOINT Chest3
   {
    OFFSET 0.000000 9.561800 0.000000
    CHANNELS 3 Yrotation Xrotation Zrotation
    JOINT Chest4
    {
     OFFSET 0.000000 9.552100 0.000000
     CHANNELS 3 Yrotation Xrotation Zrotation
     JOINT Neck
     {
      OFFSET 0.000000 14.453000 0.000000
      CHANNELS 3 Yrotation Xrotation Zrotation
      JOINT Head
      {
       OFFSET 0.000000 8.936500 -0.011300
       CHANNELS 3 Yrotation Xrotation Zrotation
       End Site
       {
        OFFSET 0.000000 17.073600 -0.006000
       }
      }
     }
     JOINT RightCollar
     {
      OFFSET -2.921100 9.558500 0.000000
      CHANNELS 3 Yrotation Xrotation Zrotation
      JOINT RightShoulder
      {
       OFFSET -13.519700 0.000000 0.000000
       CHANNELS 3 Yrotation Xrotation Zrotation
       JOINT RightElbow
       {
        OFFSET 0.000000 -29.696600 0.000000
        CHANNELS 3 Yrotation Xrotation Zrotation
        JOINT RightWrist
        {
         OFFSET 0.000000 -24.004700 0.000000
         CHANNELS 3 Yrotation Xrotation Zrotation
         End Site
         {
          OFFSET 0.000000 -17.728500 0.000000
         }
        }
       }
      }
     }
     JOINT LeftCollar
     {
      OFFSET 2.921100 9.558500 0.000000
      CHANNELS 3 Yrotation Xrotation Zrotation
      JOINT LeftShoulder
      {
       OFFSET 13.519700 0.000000 0.000000
       CHANNELS 3 Yrotation Xrotation Zrotation
       JOINT LeftElbow
       {
        OFFSET 0.000000 -29.696600 0.000000
        CHANNELS 3 Yrotation Xrotation Zrotation
        JOINT LeftWrist
        {
         OFFSET 0.000000 -24.004700 0.000000
         CHANNELS 3 Yrotation Xrotation Zrotation
         End Site
         {
          OFFSET 0.000000 -17.728500 0.000000
         }
        }
       }
      }
     }
    }
   }
  }
 }
 JOINT RightHip
 {
  OFFSET -7.771700 -0.012900 -0.001300
  CHANNELS 3 Yrotation Xrotation Zrotation
  JOINT RightKnee
  {
   OFFSET 0.000000 -40.869800 0.001200
   CHANNELS 3 Yrotation Xrotation Zrotation
   JOINT RightAnkle
   {
    OFFSET 0.000000 -39.717900 0.002100
    CHANNELS 3 Yrotation Xrotation Zrotation
    JOINT RightToe
    {
     OFFSET 0.000000 -4.965400 11.033500
     CHANNELS 3 Yrotation Xrotation Zrotation
     End Site
     {
      OFFSET 0.000000 -1.423100 5.872300
     }
    }
   }
  }
 }
 JOINT LeftHip
 {
  OFFSET 7.771700 -0.012900 -0.001300
  CHANNELS 3 Yrotation Xrotation Zrotation
  JOINT LeftKnee
  {
   OFFSET 0.000000 -40.869800 0.001200
   CHANNELS 3 Yrotation Xrotation Zrotation
   JOINT LeftAnkle
   {
    OFFSET 0.000000 -39.717900 0.002100
    CHANNELS 3 Yrotation Xrotation Zrotation
    JOINT LeftToe
    {
     OFFSET 0.000000 -4.965400 11.033500
     CHANNELS 3 Yrotation Xrotation Zrotation
     End Site
     {
      OFFSET 0.000000 -1.423100 5.872300
     }
    }
   }
  }
 }
}
MOTION
Frames: 15
Frame Time: 0.008333
-53.177990 45.029248 22.445648 172.329180 -19.010055 0.009579 0.799534 17.762404 3.780563 0.057916 2.004102 0.421675 0.103970 3.320124 0.700087 0.860374 15.556320 3.406778 -0.614695 15.587019 -5.892359 0.700721 -9.220152 -6.170667 21.717169 -3.906453 -12.695625 32.343640 -49.932372 -61.476435 -71.253203 -54.898882 57.159156 -22.126075 -13.486044 -45.828874 -15.708954 -3.196900 -6.566011 19.607240 -20.712400 8.646550 128.162974 -48.345632 -154.936446 24.021660 -1.723029 17.253061 5.495544 -70.092272 4.194167 -148.917177 71.719430 -145.532151 -12.165976 -23.342437 7.606062 0.076741 0.137465 -0.246287 4.837091 -59.675201 -2.680010 171.302668 61.996385 172.393529 -0.199493 -39.188680 0.710207 -0.082192 -0.024596 -0.043765
-53.142757 45.012370 22.431816 172.389007 -19.138378 0.010168 0.743836 17.788593 3.702493 0.056794 2.009040 0.415596 0.101966 3.328039 0.689878 0.845348 15.579548 3.354128 -0.540520 15.685400 -5.837358 0.728731 -9.180225 -6.119736 21.595702 -4.027306 -12.726372 32.715771 -49.697599 -61.612415 -71.365708 -55.180673 57.308163 -22.050490 -13.354118 -45.940811 -15.685292 -3.110195 -6.454533 19.872324 -20.320730 8.510817 128.576669 -48.286052 -155.437623 23.862184 -1.498244 17.508694 5.396489 -70.034940 4.315389 -149.131170 71.599758 -145.758605 -12.295937 -23.475647 7.728810 0.104362 0.157728 -0.245259 4.684545 -59.565068 -2.509964 171.475019 61.981324 172.493593 -0.253870 -39.194500 0.740595 -0.081311 -0.031153 -0.031819
-53.110599 44.995047 22.416762 172.487976 -19.271254 0.020518 0.647713 17.813962 3.604738 0.056436 2.013343 0.408814 0.101270 3.334982 0.678631 0.836089 15.600852 3.297646 -0.484318 15.776739 -5.764819 0.759556 -9.126057 -6.069776 21.490686 -4.131871 -12.747333 33.026692 -49.397704 -61.745499 -71.713533 -55.375717 57.664122 -22.003087 -13.234040 -46.004729 -15.637606 -3.092747 -6.343913 20.077594 -19.864368 8.411444 128.991961 -48.269449 -155.918753 23.684975 -1.257000 17.761992 5.317858 -69.971191 4.369910 -149.354861 71.480315 -145.990460 -12.445335 -23.605186 7.837123 0.156043 0.197546 -0.262354 4.554331 -59.446116 -2.404127 171.666503 61.965643 172.618845 -0.289180 -39.197894 0.766508 -0.089280 -0.041950 -0.014443
-53.078172 44.977276 22.400138 172.580961 -19.412673 0.034996 0.561370 17.839059 3.511993 0.056619 2.016837 0.401931 0.101485 3.340669 0.667161 0.831061 15.619229 3.241399 -0.445705 15.867383 -5.659477 0.812718 -9.016504 -6.034375 21.408770 -4.202382 -12.757842 33.242260 -49.075401 -61.869724 -72.263153 -55.478716 58.248016 -21.995981 -13.129518 -45.986838 -15.584291 -3.047157 -6.267971 20.217933 -19.446157 8.344120 129.432630 -48.309385 -156.374609 23.492799 -1.004652 18.000601 5.247428 -69.898520 4.413943 -149.580433 71.363400 -146.218880 -12.589910 -23.727742 7.930089 0.210514 0.227352 -0.270653 4.454362 -59.315606 -2.327215 171.856740 61.950010 172.758518 -0.317920 -39.204706 0.771853 -0.089048 -0.051576 0.018155
-53.043391 44.958435 22.383610 172.628054 -19.553315 0.049147 0.531287 17.852207 3.446955 0.057001 2.019408 0.395287 0.101986 3.344815 0.656074 0.827759 15.634040 3.187943 -0.433459 15.936545 -5.599340 0.841492 -8.905139 -5.942724 21.345706 -4.229476 -12.756318 33.348720 -48.760511 -61.980953 -72.938029 -55.517559 59.019089 -22.022725 -13.050512 -45.857359 -15.526471 -2.979615 -6.217219 20.294218 -19.054305 8.298508 129.919651 -48.410751 -156.805780 23.297418 -0.742499 18.218903 5.171147 -69.825447 4.498078 -149.805500 71.249988 -146.442920 -12.686093 -23.868563 8.007258 0.262340 0.158518 -0.192012 4.390880 -59.185865 -2.250545 172.019837 61.933858 172.894047 -0.355095 -39.212734 0.789692 -0.067509 -0.060421 0.024382
-53.013626 44.938911 22.365053 172.669230 -19.700305 0.089032 0.511495 17.863821 3.370703 0.057322 2.020861 0.388841 0.102404 3.347107 0.645430 0.824418 15.644629 3.137163 -0.446587 15.989369 -5.547662 0.799153 -8.803713 -5.827265 21.295543 -4.214948 -12.739170 33.342373 -48.479486 -62.070014 -73.629513 -55.545436 59.890317 -22.050602 -12.992533 -45.625801 -15.458986 -2.909830 -6.186082 20.303280 -18.669086 8.276349 130.454848 -48.572186 -157.211155 23.105624 -0.469804 18.416413 5.177028 -69.726251 4.480292 -150.029081 71.151878 -146.656398 -12.750280 -24.057409 8.075077 0.294139 0.158563 -0.156747 4.401439 -59.041434 -2.262268 172.132006 61.917163 172.977804 -0.335587 -39.225984 0.791176 -0.098393 -0.068873 0.004878
-52.982057 44.919641 22.342727 172.692837 -19.869964 0.113070 0.526414 17.894970 3.329560 0.057869 2.021469 0.382646 0.103210 3.348116 0.635292 0.823335 15.651930 3.089399 -0.477954 16.043905 -5.495689 0.753389 -8.747927 -5.762290 21.253614 -4.172422 -12.706003 33.222925 -48.259702 -62.123549 -74.221334 -55.620487 60.761686 -22.043368 -12.929339 -45.342188 -15.381862 -2.846103 -6.162110 20.255005 -18.280528 8.266490 131.019280 -48.785141 -157.589719 22.910141 -0.187366 18.607583 5.176097 -69.576401 4.467789 -150.250580 71.080504 -146.851691 -12.757562 -24.308352 8.142556 0.272240 0.223871 -0.163014 4.389729 -58.874552 -2.193680 172.300673 61.884437 173.094091 -0.351618 -39.247334 0.826514 -0.129470 -0.087546 0.007101
-52.956184 44.898662 22.321240 172.733676 -20.027164 0.145032 0.525620 17.912513 3.283131 0.058911 2.021421 0.376912 0.104847 3.348170 0.625892 0.826626 15.656414 3.046076 -0.525162 16.093988 -5.459817 0.694447 -8.696325 -5.711466 21.217154 -4.117071 -12.659575 32.998996 -48.108020 -62.135379 -74.649770 -55.778743 61.565395 -21.984487 -12.838606 -45.063595 -15.291656 -2.788822 -6.142290 20.165412 -17.882935 8.258876 131.586342 -49.034478 -157.945345 22.706642 0.103468 18.815024 5.152299 -69.474731 4.477510 -150.430509 70.962024 -147.024763 -12.812449 -24.478263 8.209474 0.307046 0.213133 -0.143042 4.405395 -58.720708 -2.204042 172.394508 61.858915 173.173348 -0.374365 -39.264860 0.850232 -0.131755 -0.095773 -0.002481
-52.943238 44.877008 22.296895 172.807237 -20.189591 0.221545 0.478273 17.934937 3.186254 0.060304 2.020713 0.371937 0.107066 3.347161 0.617667 0.833283 15.657875 3.009229 -0.582597 16.139678 -5.441435 0.628721 -8.648709 -5.677743 21.181624 -4.057401 -12.604836 32.699772 -48.007041 -62.110611 -74.919362 -56.029521 62.272979 -21.880712 -12.714626 -44.822572 -15.188809 -2.736198 -6.129892 20.060722 -17.473968 8.247311 132.121422 -49.305473 -158.278009 22.499038 0.400845 19.053973 5.284841 -69.409295 4.294149 -150.667366 70.803330 -147.243575 -12.934416 -24.525868 8.268219 0.421204 0.090261 -0.086109 4.483759 -58.552352 -2.353994 172.425455 61.835963 173.195787 -0.369659 -39.277770 0.844400 -0.151135 -0.106838 0.003850
-52.924749 44.852809 22.277054 172.847769 -20.325312 0.248618 0.481736 17.932193 3.158733 0.061824 2.019273 0.367963 0.109557 3.344953 0.611115 0.842132 15.655959 2.980856 -0.643625 16.176904 -5.439999 0.563115 -8.609226 -5.661928 21.122342 -3.974165 -12.522997 32.415678 -47.948758 -62.108972 -75.061574 -56.365291 62.878735 -21.754612 -12.557316 -44.625471 -15.073291 -2.689050 -6.126704 19.966787 -17.051997 8.226051 132.592756 -49.585604 -158.586722 22.289511 0.704373 19.342013 5.328338 -69.313104 4.217511 -150.873732 70.707477 -147.417843 -12.962698 -24.739586 8.333929 0.424973 0.113053 -0.077930 4.518007 -58.421801 -2.398919 172.473971 61.812014 173.250445 -0.387183 -39.300670 0.845884 -0.146432 -0.103341 0.004825
-52.906012 44.827592 22.257078 172.887952 -20.459784 0.250131 0.491703 17.933277 3.161083 0.063368 2.017131 0.364969 0.112095 3.341604 0.606180 0.852140 15.650801 2.960486 -0.701881 16.202756 -5.454034 0.504093 -8.581133 -5.663910 21.100532 -3.935676 -12.481578 32.021637 -47.891490 -61.997083 -75.117094 -56.765754 63.400467 -21.623368 -12.371412 -44.467053 -14.950431 -2.646996 -6.128964 19.901661 -16.613908 8.188339 132.989173 -49.861997 -158.881669 22.078670 1.014482 19.698293 5.300635 -69.197364 4.211027 -151.020282 70.626111 -147.536820 -12.971091 -25.002520 8.407381 0.397974 0.179366 -0.081979 4.569921 -58.295518 -2.429520 172.523362 61.784161 173.332124 -0.432468 -39.328607 0.856479 -0.127472 -0.096943 0.021968
-52.894991 44.801728 22.235535 172.913611 -20.596487 0.280602 0.504696 17.944097 3.137631 0.064844 2.014700 0.362711 0.086050 3.400527 0.606068 0.889357 15.581555 2.939688 -0.752000 16.217286 -5.479853 0.456553 -8.564610 -5.680841 21.082719 -3.915204 -12.441913 31.609844 -47.841558 -61.845386 -75.131778 -57.207755 63.871466 -21.488833 -12.166439 -44.344005 -14.834363 -2.611322 -6.127609 19.870653 -16.152396 8.132899 133.325064 -50.124371 -159.180302 21.874853 1.328734 20.132550 5.362255 -69.109951 4.133875 -151.144896 70.505258 -147.638658 -12.991291 -25.198216 8.481960 0.403049 0.183252 -0.070657 4.639590 -58.160183 -2.498522 172.543145 61.753896 173.363371 -0.451636 -39.362621 0.873386 -0.126613 -0.089365 0.014644
-52.886949 44.775223 22.213666 172.931107 -20.732419 0.310510 0.522049 17.960749 3.113451 0.066011 2.012224 0.360995 0.064371 3.455723 0.608731 0.919874 15.515360 2.921711 -0.788881 16.220735 -5.512560 0.424757 -8.559516 -5.708447 21.049425 -3.891893 -12.396113 31.223267 -47.805183 -61.671948 -75.156478 -57.674105 64.328248 -21.351752 -11.952142 -44.259643 -14.732185 -2.583373 -6.118902 19.866409 -15.656802 8.070420 133.618213 -50.361433 -159.491629 21.693803 1.649210 20.649906 5.451668 -69.023526 4.032869 -151.278294 70.385037 -147.743482 -12.987444 -25.397249 8.550722 0.405382 0.185114 -0.059727 4.698913 -58.025063 -2.553422 172.576088 61.720256 173.394107 -0.459323 -39.401489 0.899368 -0.134290 -0.081175 -0.000057
-52.881213 44.747741 22.193369 172.962162 -20.857667 0.328394 0.504815 18.027718 3.089146 0.087085 1.953687 0.356050 0.106613 3.359248 0.600349 0.888859 15.599309 2.926231 -0.811729 16.213157 -5.547907 0.408523 -8.566068 -5.742234 21.012695 -3.875280 -12.353879 30.844662 -47.755443 -61.452849 -75.247659 -58.147661 64.808600 -21.221488 -11.746237 -44.206526 -14.642535 -2.560521 -6.104581 19.879955 -15.120891 8.011663 133.859656 -50.561845 -159.807136 21.536240 1.985649 21.248390 5.537146 -68.947332 3.931209 -151.415851 70.268770 -147.844194 -13.002441 -25.596549 8.617965 0.415184 0.186909 -0.043030 4.711200 -57.905727 -2.592555 172.595406 61.689388 173.411865 -0.461395 -39.437788 0.905821 -0.131153 -0.065913 -0.009253
-52.877255 44.718990 22.176534 172.981655 -20.962332 0.340028 0.499579 18.075352 3.073915 0.102133 1.895442 0.348733 0.119417 3.325669 0.596540 0.884204 15.620048 2.926297 -0.821482 16.193951 -5.583495 0.406255 -8.585057 -5.779298 20.974595 -3.858084 -12.313438 30.487831 -47.683277 -61.203765 -75.447582 -58.603705 65.343721 -21.104310 -11.564500 -44.159594 -14.619675 -2.485716 -6.097102 19.957708 -14.603161 7.950140 134.042008 -50.723748 -160.117068 21.390187 2.342476 21.903463 5.580676 -68.891725 3.882225 -151.545047 70.161645 -147.951020 -13.019604 -25.792628 8.684670 0.407522 0.188913 -0.030516 4.750715 -57.812428 -2.634624 172.618171 61.654279 173.445743 -0.474735 -39.468776 0.917837 -0.121322 -0.055332 -0.009834
